<svg width="40" height="44" viewBox="0 0 40 44" fill="none" xmlns="http://www.w3.org/2000/svg">
<path fill-rule="evenodd" clip-rule="evenodd" d="M23.981 39.9468C23.982 39.9658 23.987 39.9828 23.987 40.0028C23.987 42.2098 22.202 43.9998 20 43.9998C17.798 43.9998 16.013 42.2098 16.013 40.0028C16.013 39.9838 16.018 39.9668 16.018 39.9468C3.267 39.5968 0 37.5198 0 35.0028C0 34.2148 0.344 33.4728 1.181 32.8088C7.209 26.0938 9 27.9528 9 18.0058C9 11.3738 9.271 5.29377 17.258 4.19877C17.1 3.83277 17.01 3.43077 17.01 3.00777C17.01 1.35177 18.349 0.00976562 20 0.00976562C21.651 0.00976562 22.99 1.35177 22.99 3.00777C22.99 3.43077 22.9 3.83277 22.742 4.19877C30.729 5.29377 31 11.3738 31 18.0058C31 27.9828 32.8 26.0788 38.872 32.8658C39.666 33.5158 40 34.2368 40 35.0028C40 37.5178 36.647 39.5948 23.981 39.9468ZM20 42.0028C21.102 42.0028 21.994 41.1078 21.994 40.0048C21.994 39.9988 21.992 39.9928 21.992 39.9868C21.341 39.9958 20.696 40.0058 20 40.0058C19.304 40.0058 18.66 39.9958 18.008 39.9868C18.008 39.9928 18.006 39.9988 18.006 40.0048C18.006 41.1078 18.898 42.0028 20 42.0028ZM20 2.00677C19.449 2.00677 19.004 2.45377 19.004 3.00577C19.004 3.55777 19.449 4.00577 20 4.00577C20.551 4.00577 20.997 3.55777 20.997 3.00577C20.997 2.45377 20.551 2.00677 20 2.00677ZM37.605 34.4138C37.605 34.4138 36.083 32.6998 33.587 30.4298C30.179 27.3248 29 25.8528 29 18.0058C29 10.3418 28.582 6.00576 20 6.00576C11.418 6.00576 11 10.3418 11 18.0058C11 25.8538 9.82 27.3268 6.41 30.4328C3.963 32.6618 2.424 34.3748 2.424 34.3748C2 34.7118 2 34.9078 2 35.0028C2 35.1258 2.205 38.0058 20 38.0058C37.795 38.0058 38 35.1258 38 35.0028C38 34.9228 38 34.7358 37.605 34.4138Z" fill="white"/>
</svg>
