<svg width="23" height="24" viewBox="0 0 23 24" fill="none" xmlns="http://www.w3.org/2000/svg">
<g clip-path="url(#clip0_2742_12358)">
<path fill-rule="evenodd" clip-rule="evenodd" d="M22.7008 6.39961H0.300781V5.34961C0.300781 4.38361 0.927981 3.59961 1.70078 3.59961H21.3008C22.0736 3.59961 22.7008 4.38361 22.7008 5.34961V6.39961ZM22.7008 9.89961V18.9996C22.7008 19.3709 22.5533 19.727 22.2907 19.9896C22.0282 20.2521 21.6721 20.3996 21.3008 20.3996H1.70078C1.32948 20.3996 0.973383 20.2521 0.710832 19.9896C0.448281 19.727 0.300781 19.3709 0.300781 18.9996V9.89961H22.7008ZM5.90078 14.7996C5.52948 14.7996 5.17338 14.9471 4.91083 15.2097C4.64828 15.4722 4.50078 15.8283 4.50078 16.1996C4.50078 16.5709 4.64828 16.927 4.91083 17.1896C5.17338 17.4521 5.52948 17.5996 5.90078 17.5996H7.30078C7.67208 17.5996 8.02818 17.4521 8.29073 17.1896C8.55328 16.927 8.70078 16.5709 8.70078 16.1996C8.70078 15.8283 8.55328 15.4722 8.29073 15.2097C8.02818 14.9471 7.67208 14.7996 7.30078 14.7996H5.90078Z" fill="#0570DE"/>
</g>
<defs>
<clipPath id="clip0_2742_12358">
<rect width="22.4" height="22.4" fill="white" transform="translate(0.300781 0.798828)"/>
</clipPath>
</defs>
</svg>
