<svg width="20" height="19" viewBox="0 0 20 19" fill="none" xmlns="http://www.w3.org/2000/svg">
<path d="M3.0013 18.333C2.35964 18.333 1.81052 18.1047 1.35397 17.6481C0.897413 17.1916 0.668747 16.6421 0.667969 15.9996V13.6663C0.667969 13.3357 0.779969 13.0588 1.00397 12.8356C1.22797 12.6124 1.50486 12.5004 1.83464 12.4996C2.16441 12.4988 2.44169 12.6108 2.66647 12.8356C2.89125 13.0604 3.00286 13.3373 3.0013 13.6663V15.9996H17.0013V13.6663C17.0013 13.3357 17.1133 13.0588 17.3373 12.8356C17.5613 12.6124 17.8382 12.5004 18.168 12.4996C18.4977 12.4988 18.775 12.6108 18.9998 12.8356C19.2246 13.0604 19.3362 13.3373 19.3346 13.6663V15.9996C19.3346 16.6413 19.1064 17.1908 18.6498 17.6481C18.1932 18.1055 17.6437 18.3337 17.0013 18.333H3.0013ZM8.83464 4.15796L6.64714 6.34546C6.4138 6.57879 6.13691 6.69079 5.81647 6.68146C5.49602 6.67213 5.21875 6.5504 4.98464 6.31629C4.77075 6.08296 4.65875 5.81074 4.64864 5.49963C4.63852 5.18852 4.75052 4.91629 4.98464 4.68296L9.18464 0.48296C9.3013 0.366294 9.42769 0.283849 9.5638 0.235627C9.69991 0.187405 9.84575 0.162905 10.0013 0.162127C10.1569 0.16135 10.3027 0.185849 10.4388 0.235627C10.5749 0.285405 10.7013 0.367849 10.818 0.48296L15.018 4.68296C15.2513 4.91629 15.3633 5.18852 15.354 5.49963C15.3446 5.81074 15.2326 6.08296 15.018 6.31629C14.7846 6.54963 14.5077 6.67135 14.1873 6.68146C13.8669 6.69157 13.5896 6.57957 13.3555 6.34546L11.168 4.15796V12.4996C11.168 12.8302 11.056 13.1075 10.832 13.3315C10.608 13.5555 10.3311 13.6671 10.0013 13.6663C9.67153 13.6655 9.39464 13.5535 9.17064 13.3303C8.94664 13.1071 8.83464 12.8302 8.83464 12.4996V4.15796Z" fill="white"/>
</svg>
