<svg width="45" height="46" viewBox="0 0 45 46" fill="none" xmlns="http://www.w3.org/2000/svg">
<path d="M22.4455 0.792969C10.2104 0.792969 0.240234 10.7631 0.240234 22.9982C0.240234 35.2333 10.2104 45.2034 22.4455 45.2034C34.6805 45.2034 44.6507 35.2333 44.6507 22.9982C44.6507 10.7631 34.6805 0.792969 22.4455 0.792969ZM33.0596 17.891L20.4692 30.4814C20.1583 30.7922 19.7364 30.9699 19.2923 30.9699C18.8482 30.9699 18.4263 30.7922 18.1154 30.4814L11.8314 24.1973C11.1874 23.5533 11.1874 22.4875 11.8314 21.8435C12.4753 21.1996 13.5412 21.1996 14.1851 21.8435L19.2923 26.9507L30.7058 15.5372C31.3498 14.8933 32.4156 14.8933 33.0596 15.5372C33.7035 16.1812 33.7035 17.2248 33.0596 17.891Z" fill="#900C3F"/>
</svg>
