<svg width="117" height="117" viewBox="0 0 117 117" fill="none" xmlns="http://www.w3.org/2000/svg">
    <path d="M58.5 0C11.7 0 0 11.7 0 58.5C0 105.3 11.7 117 58.5 117C105.3 117 117 105.3 117 58.5C117 11.7 105.3 0 58.5 0ZM80.4375 95.1112H64.3012V63.3896C64.3012 58.6365 63.3896 55.4824 60.2355 55.4824C56.7645 55.4824 52.5574 60.372 52.5574 68.2792V95.1064H36.5625V24.2287L52.6012 21.4841V47.9456C56.0771 44.7964 60.9229 43.4216 65.8612 43.4216C76.3717 43.4216 80.4375 50.3246 80.4375 61.1081V95.1112Z" fill="#900C3F"/>
</svg>
